HIERARCHY
ROOT Hips
{
	OFFSET 0.00000 0.00000 0.00000
	CHANNELS 6 Xposition Yposition Zposition Zrotation Yrotation Xrotation 
	JOINT LHipJoint
	{
		OFFSET 0 0 0
		CHANNELS 3 Zrotation Yrotation Xrotation
		JOINT LeftHip
		{
			OFFSET 1.59715 -1.91394 0.36268
			CHANNELS 3 Zrotation Yrotation Xrotation
			JOINT LeftKnee
			{
				OFFSET 2.53886 -6.97546 0.00000
				CHANNELS 3 Zrotation Yrotation Xrotation
				JOINT LeftAnkle
				{
					OFFSET 2.77084 -7.61284 0.00000
					CHANNELS 3 Zrotation Yrotation Xrotation
					JOINT LeftToe
					{
						OFFSET 0.19855 -0.54550 2.06057
						CHANNELS 3 Zrotation Yrotation Xrotation
						End Site
						{
							OFFSET 0.00000 -0.00000 1.07182
						}
					}
				}
			}
		}
	}
	JOINT RHipJoint
	{
		OFFSET 0 0 0
		CHANNELS 3 Zrotation Yrotation Xrotation
		JOINT RightHip
		{
			OFFSET -1.71086 -1.91394 0.36268
			CHANNELS 3 Zrotation Yrotation Xrotation
			JOINT RightKnee
			{
				OFFSET -2.59448 -7.12828 0.00000
				CHANNELS 3 Zrotation Yrotation Xrotation
				JOINT RightAnkle
				{
					OFFSET -2.80237 -7.69945 0.00000
					CHANNELS 3 Zrotation Yrotation Xrotation
					JOINT RightToe
					{
						OFFSET -0.18280 -0.50224 2.06614
						CHANNELS 3 Zrotation Yrotation Xrotation
						End Site
						{
							OFFSET -0.00000 -0.00000 1.07055
						}
					}
				}
			}
		}
	}
	JOINT lowerback
	{
		OFFSET 0 0 0
		CHANNELS 3 Zrotation Yrotation Xrotation
		JOINT Chest
		{
			OFFSET 0.04838 1.91536 -0.09733
			CHANNELS 3 Zrotation Yrotation Xrotation
			JOINT Chest2
			{
				OFFSET 0.04097 1.92183 -0.02751
				CHANNELS 3 Zrotation Yrotation Xrotation
				JOINT lowerneck
				{
					OFFSET 0 0 0
					CHANNELS 3 Zrotation Yrotation Xrotation
					JOINT Neck
					{
						OFFSET 0.18766 3.12816 0.13727
						CHANNELS 3 Zrotation Yrotation Xrotation
						JOINT Head
						{
							OFFSET -0.11178 3.16074 0.02732
							CHANNELS 3 Zrotation Yrotation Xrotation
							End Site
							{
								OFFSET 0.47685 1.04189 0.57898
							}
						}
					}
				}
				JOINT LeftCollar
				{
					OFFSET 0 0 0
					CHANNELS 3 Zrotation Yrotation Xrotation
					JOINT LeftShoulder
					{
						OFFSET 3.49325 0.99827 -0.10681
CHANNELS 3 Zrotation Xrotation Yrotation
						JOINT LeftElbow
						{
OFFSET 0 -5.128420 0.000000
CHANNELS 3 Zrotation Xrotation Yrotation
							JOINT LeftWrist
							{
OFFSET 0 -3.473960 0.000000
CHANNELS 3 Zrotation Xrotation Yrotation
								JOINT lhand
								{
									OFFSET 0 0 0
CHANNELS 3 Zrotation Xrotation Yrotation
									JOINT LFingers
									{
OFFSET 0 -0.728610 0.000000
CHANNELS 3 Zrotation Xrotation Yrotation
										End Site
										{
OFFSET 0 -0.587420 0.000000
										}
									}
								}
								JOINT LThumb
								{
OFFSET 0 0.000000 0.000000
CHANNELS 3 Zrotation Xrotation Yrotation
									End Site
									{
OFFSET 0 -0.596390 0.596390
									}
								}
							}
						}
					}
				}
				JOINT RightCollar
				{
					OFFSET 0 0 0
					CHANNELS 3 Zrotation Yrotation Xrotation
					JOINT RightShoulder
					{
						OFFSET -3.23261 1.50670 -0.18692
CHANNELS 3 Zrotation Xrotation Yrotation
						JOINT RightElbow
						{
OFFSET 0 -5.484770 -0.000000
CHANNELS 3 Zrotation Xrotation Yrotation
							JOINT RightWrist
							{
OFFSET 0 -3.478560 0.000000
CHANNELS 3 Zrotation Xrotation Yrotation
								JOINT rhand
								{
									OFFSET 0 0 0
CHANNELS 3 Zrotation Xrotation Yrotation
									JOINT RFingers
									{
OFFSET 0 -0.709970 0.000000
CHANNELS 3 Zrotation Xrotation Yrotation
										End Site
										{
OFFSET 0 -0.572400 0.000000
										}
									}
								}
								JOINT RThumb
								{
OFFSET 0 0.000000 0.000000
CHANNELS 3 Zrotation Xrotation Yrotation
									End Site
									{
OFFSET 0 -0.581140 0.581140
									}
								}
							}
						}
					}
				}
			}
		}
	}
}
MOTION
Frames: 8
Frame Time: 0.008333333333333333
-0.056400 18.122600 -5.888900 -2.031100 -0.104300 3.204600 0.000000 0.000000 0.000000 -21.472300 -12.396500 -9.529800 2.482600 9.806200 28.351300 0.961600 2.529500 -19.599800 0.043600 1.347500 3.705400 0.000000 0.000000 0.000000 26.128600 12.428500 -12.528100 -3.575000 -11.572300 34.235300 -0.996700 -8.688300 -23.896800 -1.807600 -8.453200 24.099400 0.150700 -0.829300 1.894600 2.572500 -1.038000 -1.659700 2.605100 -0.494800 -2.722200 -6.185800 -4.558300 -14.972300 0.794700 -4.970000 17.189300 0.712700 -2.692600 7.970800 -0.000000 -0.000000 0.000000 -3.634700 -0.047800 -13.148500 12.976200 -21.252300 2.444600 13.265000 22.956400 -30.960100 0.000000 0.000000 0.000000 -7.125000 0.000000 0.000000 -21.249800 60.356700 8.175600 -0.000000 -0.000000 0.000000 -1.588900 -2.711800 14.514500 -11.902900 -19.658800 -2.069500 -25.402600 -7.096000 -14.997100 0.000000 0.000000 0.000000 7.125000 0.000000 -0.000000 1.464600 13.465100 1.083600
-0.072998 18.104752 -5.914835 -2.640128 -0.062351 3.116798 0.000000 0.000000 0.000000 -20.672469 -12.682359 -10.072589 2.649663 10.105006 29.317498 1.011150 2.491008 -20.046550 0.087876 1.910249 5.257855 0.000000 0.000000 0.000000 26.857363 12.890694 -12.057311 -3.393689 -11.306633 33.321185 -0.844834 -8.977597 -22.833701 -2.208579 -9.287620 26.699250 0.554900 -0.881713 2.216155 2.720268 -1.094883 -1.260940 2.532898 -0.532294 -2.494941 -6.158085 -4.797024 -15.640059 0.928061 -5.284474 17.465710 0.697739 -2.824943 8.195007 0.000000 0.000000 0.000000 -3.956287 -0.391955 -12.983008 12.714927 -20.868053 2.350760 13.043623 23.169620 -31.290527 0.000000 0.000000 0.000000 -7.125000 0.000000 0.000000 -21.752653 60.608744 8.511316 0.000000 0.000000 0.000000 -1.374887 -2.927573 15.469187 -12.032284 -19.852996 -2.113273 -25.182941 -7.114718 -14.291089 0.000000 0.000000 0.000000 7.125000 0.000000 0.000000 1.559299 14.262705 1.127419
-0.072385 18.109608 -5.912478 -2.576696 0.052381 3.124673 0.000000 0.000000 0.000000 -20.786546 -12.824916 -9.860989 2.620244 10.053377 29.149590 1.005163 2.538681 -20.014054 0.112371 2.161076 5.951082 0.000000 0.000000 0.000000 26.780495 12.778245 -11.995326 -3.378652 -11.284208 33.244397 -0.879826 -8.764058 -22.963368 -2.386811 -9.629200 27.784085 0.602701 -0.889671 2.049004 2.674488 -1.114568 -1.032866 2.452716 -0.545638 -2.167207 -6.324666 -4.748888 -15.467547 1.051394 -5.215643 17.538947 0.777009 -2.792633 8.195103 0.000000 0.000000 0.000000 -4.176135 -0.424236 -12.961890 12.653872 -20.777961 2.329067 12.717239 23.620046 -32.452111 0.000000 0.000000 0.000000 -7.125000 0.000000 0.000000 -23.097117 61.591107 9.610723 0.000000 0.000000 0.000000 -1.254225 -2.400654 15.401458 -11.879712 -19.623901 -2.061753 -25.460356 -6.877825 -14.128968 0.000000 0.000000 0.000000 7.125000 0.000000 0.000000 1.358716 14.404610 0.978292
-0.073789 18.110000 -5.918067 -2.461166 0.218257 3.205908 0.000000 0.000000 0.000000 -20.865720 -12.812183 -9.990983 2.610189 10.035484 29.091779 0.990267 2.441008 -19.827310 0.115556 2.191513 6.035250 0.000000 0.000000 0.000000 26.641967 12.824251 -12.140970 -3.395883 -11.309844 33.332139 -0.875660 -8.874506 -23.017755 -2.353515 -9.566553 27.584153 0.572349 -0.888121 2.063361 2.658163 -1.118421 -0.834885 2.450371 -0.548916 -1.971385 -6.540379 -4.659301 -15.637093 1.202979 -5.056235 17.454693 0.878703 -2.714034 8.201185 0.000000 0.000000 0.000000 -4.198115 -0.703123 -12.945264 12.785277 -20.971821 2.375888 12.885046 23.760798 -32.554752 0.000000 0.000000 0.000000 -7.125000 0.000000 0.000000 -23.010612 61.725690 9.646208 0.000000 0.000000 0.000000 -1.223026 -2.047644 14.306640 -11.583258 -19.176723 -1.963238 -25.523103 -5.788351 -13.709988 0.000000 0.000000 0.000000 7.125000 0.000000 0.000000 1.285098 14.854677 0.912888
-0.072652 18.109337 -5.923019 -2.489688 0.376877 3.260809 0.000000 0.000000 0.000000 -20.799528 -12.705353 -10.127289 2.605993 10.028085 29.067756 0.994626 2.188028 -19.747608 0.103975 2.079073 5.724156 0.000000 0.000000 0.000000 26.648665 12.841424 -12.239880 -3.403500 -11.321200 33.371100 -0.902892 -8.781922 -23.177912 -2.480019 -9.801480 28.336172 0.687249 -0.899221 2.100183 2.653251 -1.130091 -0.794381 2.381380 -0.556436 -1.952344 -6.448431 -4.591525 -15.531114 1.133285 -4.979426 17.507074 0.851837 -2.679735 8.192404 0.000000 0.000000 0.000000 -3.853048 -0.750190 -13.631078 12.932406 -21.188088 2.428767 13.259449 23.056759 -32.265150 0.000000 0.000000 0.000000 -7.125000 0.000000 0.000000 -22.353557 61.554683 9.264125 0.000000 0.000000 0.000000 -1.325124 -1.745096 14.010968 -11.374927 -18.860730 -1.895383 -25.328957 -6.534818 -14.623149 0.000000 0.000000 0.000000 7.125000 0.000000 0.000000 1.485172 13.882145 1.085832
-0.063411 18.110596 -5.924000 -2.660630 0.182083 3.366305 0.000000 0.000000 0.000000 -20.615407 -12.729575 -10.347352 2.641992 10.091707 29.274176 1.006987 2.262756 -19.898559 0.107144 2.110346 5.810607 0.000000 0.000000 0.000000 26.793017 13.002722 -12.252586 -3.378024 -11.283235 33.241019 -0.867940 -8.935781 -23.001048 -2.408159 -9.669003 27.911273 1.008671 -0.819043 2.125084 2.694770 -1.012984 -0.768550 2.239371 -0.501654 -1.948974 -6.258401 -4.612255 -15.453845 0.838568 -4.999840 17.586212 0.721561 -2.707713 8.193224 0.000000 0.000000 0.000000 -3.659592 -0.946917 -13.682206 12.870516 -21.097177 2.406471 13.572574 23.233704 -31.367402 0.000000 0.000000 0.000000 -7.125000 0.000000 0.000000 -21.255697 60.806308 8.406561 0.000000 0.000000 0.000000 -1.359171 -1.719016 13.898933 -11.619087 -19.230882 -1.974996 -25.226059 -5.968077 -14.303320 0.000000 0.000000 0.000000 7.125000 0.000000 0.000000 1.530831 14.244071 1.107536
-0.061200 18.107011 -5.918089 -2.771238 -0.196642 3.494314 0.000000 0.000000 0.000000 -20.455204 -12.628824 -10.606774 2.654023 10.112723 29.342559 1.021723 2.296887 -20.051785 0.070108 1.705673 4.693060 0.000000 0.000000 0.000000 26.886350 13.335567 -12.334324 -3.383978 -11.292167 33.271745 -0.837887 -9.022888 -22.809936 -2.310255 -9.484476 27.323028 1.063666 -0.743242 2.049506 2.787926 -0.908653 -0.839565 2.300326 -0.449410 -1.982107 -6.149001 -4.434599 -15.489844 0.746248 -4.762987 18.078284 0.696913 -2.603199 8.351298 0.000000 0.000000 0.000000 -3.631899 -1.071263 -13.604073 12.825140 -21.030505 2.390187 13.215834 23.523686 -32.281636 0.000000 0.000000 0.000000 -7.125000 0.000000 0.000000 -22.414456 61.558941 9.293117 0.000000 0.000000 0.000000 -1.298666 -2.216553 14.021106 -11.721208 -19.385123 -2.008803 -25.800851 -5.773545 -13.696097 0.000000 0.000000 0.000000 7.125000 0.000000 0.000000 1.094437 14.835506 0.777916
-0.060100 18.108911 -5.889400 -2.670132 -0.526167 3.442267 0.000000 0.000000 0.000000 -20.666197 -12.498005 -10.338713 2.652074 10.109334 29.331503 1.016851 2.621357 -20.163175 0.131707 2.338479 6.442055 0.000000 0.000000 0.000000 26.775291 13.317175 -12.179123 -3.384104 -11.292306 33.272192 -0.845775 -8.848281 -22.734319 -2.217802 -9.305572 26.756110 0.935536 -0.697636 1.785723 2.779571 -0.859765 -0.806755 2.357192 -0.424019 -1.799923 -6.073012 -4.344883 -15.663109 0.672129 -4.632061 18.470249 0.669076 -2.547455 8.506320 0.000000 0.000000 0.000000 -3.709734 -1.179717 -13.232893 12.853053 -21.071552 2.400178 13.128839 23.598058 -31.049291 0.000000 0.000000 0.000000 -7.125000 0.000000 0.000000 -21.465897 60.406876 8.289352 0.000000 0.000000 0.000000 -1.272030 -2.199188 15.484824 -12.201721 -20.106376 -2.171138 -25.228599 -6.673598 -13.801796 0.000000 0.000000 0.000000 7.125000 0.000000 0.000000 1.492791 14.790576 1.062613
